<?xml version="1.0" encoding="UTF-8" standalone="no"?>
<svg
   xmlns:dc="http://purl.org/dc/elements/1.1/"
   xmlns:cc="http://creativecommons.org/ns#"
   xmlns:rdf="http://www.w3.org/1999/02/22-rdf-syntax-ns#"
   xmlns:svg="http://www.w3.org/2000/svg"
   xmlns="http://www.w3.org/2000/svg"
   xmlns:sodipodi="http://sodipodi.sourceforge.net/DTD/sodipodi-0.dtd"
   xmlns:inkscape="http://www.inkscape.org/namespaces/inkscape"
   viewBox="0 0 50 50"
   xml:space="preserve"
   version="1.1"
   id="svg2"
   sodipodi:docname="think_centered.svg"
   width="50"
   height="50"
   inkscape:version="0.92.4 5da689c313, 2019-01-14"><sodipodi:namedview
     pagecolor="#ffffff"
     bordercolor="#666666"
     borderopacity="1"
     objecttolerance="10"
     gridtolerance="10"
     guidetolerance="10"
     inkscape:pageopacity="0"
     inkscape:pageshadow="2"
     inkscape:window-width="1900"
     inkscape:window-height="1154"
     id="namedview4602"
     showgrid="false"
     inkscape:snap-bbox="true"
     inkscape:snap-bbox-midpoints="true"
     inkscape:snap-object-midpoints="true"
     inkscape:snap-page="true"
     inkscape:zoom="10.588889"
     inkscape:cx="22.124824"
     inkscape:cy="14.490546"
     inkscape:window-x="8"
     inkscape:window-y="36"
     inkscape:window-maximized="0"
     inkscape:current-layer="g14" /><metadata
     id="metadata8"><rdf:RDF><cc:Work
         rdf:about=""><dc:format>image/svg+xml</dc:format><dc:type
           rdf:resource="http://purl.org/dc/dcmitype/StillImage" /><dc:title></dc:title></cc:Work></rdf:RDF></metadata><defs
     id="defs6"><clipPath
       id="clipPath16"
       clipPathUnits="userSpaceOnUse"><path
         id="path18"
         d="M 0,36 H 36 V 0 H 0 Z"
         inkscape:connector-curvature="0" /></clipPath></defs><g
     transform="matrix(1.25,0,0,-1.25,2.8777552,48.91475)"
     id="g10"><g
       id="g12"><g
         clip-path="url(#clipPath16)"
         id="g14"><g
           transform="translate(1.6977964,19.1318)"
           id="g20"><path
             id="path22"
             style="fill:#ffcc4d;fill-opacity:1;fill-rule:nonzero;stroke:none"
             d="m 0,0 c 0,-8.837 7.164,-16 16,-16 8.837,0 16,7.163 16,16 C 32,8.836 24.837,16 16,16 7.164,16 0,8.836 0,0"
             inkscape:connector-curvature="0" /></g><g
           transform="translate(15.104096,24.6318)"
           id="g24"><path
             id="path26"
             style="fill:#664500;fill-opacity:1;fill-rule:nonzero;stroke:none"
             d="m 0,0 c 0,-1.381 -0.896,-2.5 -2,-2.5 -1.104,0 -2,1.119 -2,2.5 0,1.38 0.896,2.5 2,2.5 1.104,0 2,-1.12 2,-2.5"
             inkscape:connector-curvature="0" /></g><g
           transform="translate(25.697796,23.6318)"
           id="g28"><path
             id="path30"
             style="fill:#664500;fill-opacity:1;fill-rule:nonzero;stroke:none"
             d="m 0,0 c 0,-1.381 -0.895,-2.5 -2,-2.5 -1.104,0 -2,1.119 -2,2.5 0,1.38 0.896,2.5 2,2.5 1.105,0 2,-1.12 2,-2.5"
             inkscape:connector-curvature="0" /></g><g
           transform="translate(9.3686964,28.7988)"
           id="g32"><path
             id="path34"
             style="fill:#664500;fill-opacity:1;fill-rule:nonzero;stroke:none"
             d="M 0,0 C -0.164,0.087 -0.303,0.223 -0.391,0.398 -0.607,0.827 -0.431,1.325 0.002,1.511 4.268,3.341 7.701,1.554 7.845,1.477 8.278,1.246 8.453,0.729 8.236,0.323 8.02,-0.082 7.496,-0.223 7.063,0.005 6.94,0.069 4.231,1.437 0.785,-0.042 0.528,-0.151 0.238,-0.127 0,0"
             inkscape:connector-curvature="0" /></g><g
           transform="translate(14.440496,15.5595)"
           id="g36"><path
             id="path38"
             style="fill:#664500;fill-opacity:1;fill-rule:nonzero;stroke:none"
             d="M 0,0 C -0.136,0.127 -0.236,0.293 -0.276,0.486 -0.375,0.955 -0.078,1.392 0.389,1.46 4.981,2.138 7.841,-0.469 7.962,-0.58 8.322,-0.914 8.357,-1.457 8.044,-1.795 7.732,-2.131 7.189,-2.133 6.83,-1.801 6.726,-1.709 4.458,0.307 0.748,-0.24 0.471,-0.281 0.197,-0.184 0,0"
             inkscape:connector-curvature="0" /></g><g
           transform="translate(20.128496,25.0488)"
           id="g40"><path
             id="path42"
             style="fill:#664500;fill-opacity:1;fill-rule:nonzero;stroke:none"
             d="M 0,0 C -0.156,0.098 -0.286,0.243 -0.362,0.424 -0.549,0.866 -0.339,1.352 0.105,1.508 4.486,3.044 7.79,1.028 7.929,0.941 8.344,0.681 8.483,0.154 8.24,-0.237 7.998,-0.627 7.464,-0.732 7.049,-0.475 6.929,-0.402 4.321,1.146 0.782,-0.095 0.518,-0.187 0.23,-0.143 0,0"
             inkscape:connector-curvature="0" /></g><g
           transform="translate(16.974196)"
           id="g44"><path
             id="path46"
             style="fill:#f4900c;fill-opacity:1;fill-rule:nonzero;stroke:none"
             d="m 0,0 c 0,0 1.265,0.411 1.429,1.352 0.173,0.971 -0.624,1.167 -0.624,1.167 0,0 1.041,0.208 1.172,1.376 0.123,1.1 -0.862,1.363 -0.862,1.363 0,0 0.97,0.4 1.016,1.539 0.038,0.959 -0.995,1.428 -0.995,1.428 0,0 5.038,1.22 5.555,1.34 0.516,0.121 1.321,0.616 1.07,1.695 -0.249,1.08 -1.204,1.118 -1.698,1.003 -0.494,-0.116 -6.744,-1.567 -8.9,-2.069 -0.23,-0.053 -1.308,-0.302 -1.439,-0.334 -0.54,-0.127 -0.785,0.111 -0.405,0.512 0.509,0.536 0.833,1.129 0.947,2.113 0.119,1.036 -0.232,2.314 -0.433,2.809 -0.374,0.921 -1.005,1.649 -1.734,1.899 -1.138,0.39 -1.946,-0.321 -1.542,-1.561 0.604,-1.855 0.209,-3.375 -0.833,-4.293 -2.449,-2.157 -3.589,-3.695 -2.83,-6.973 0.827,-3.575 4.377,-5.876 7.952,-5.048 C -2.965,-0.64 0,0 0,0"
             inkscape:connector-curvature="0" /></g></g></g></g></svg>